<svg width="50" height="62" viewBox="0 0 50 62" fill="none" xmlns="http://www.w3.org/2000/svg">
<path d="M24.8 15.6047H42.7205C45.1404 15.6047 47.12 13.8702 47.12 11.7508C47.12 9.63136 45.1404 7.89685 42.7205 7.89685H24.8C22.38 7.89685 20.4005 9.63136 20.4005 11.7508C20.4005 13.8702 22.38 15.6047 24.8 15.6047Z" fill="#0066F5"/>
<path d="M6.88006 15.6047H11.4403C13.8598 15.6047 15.8398 13.8702 15.8398 11.7508C15.8398 9.63136 13.8598 7.89685 11.4403 7.89685H6.88006C4.46007 7.89685 2.48004 9.63136 2.48004 11.7508C2.48004 13.8702 4.46007 15.6047 6.88006 15.6047Z" fill="#0066F5"/>
<path d="M42.7205 38.7277H6.88006C4.46007 38.7277 2.48004 40.4622 2.48004 42.5816C2.48004 44.701 4.46007 46.4355 6.88006 46.4355H42.7205C45.1405 46.4355 47.12 44.701 47.12 42.5816C47.12 40.4622 45.1405 38.7277 42.7205 38.7277Z" fill="#0066F5"/>
<path d="M42.7205 23.312H6.88006C4.46007 23.312 2.48004 25.0465 2.48004 27.1664C2.48004 29.2863 4.46007 31.0203 6.88006 31.0203H42.7205C45.1405 31.0203 47.12 29.2858 47.12 27.1664C47.12 25.047 45.1405 23.312 42.7205 23.312Z" fill="#0066F5"/>
</svg>
