<svg width="128" height="129" viewBox="0 0 128 129" fill="none" xmlns="http://www.w3.org/2000/svg">
<g filter="url(#filter0_d_1_8)">
<ellipse rx="32" ry="31.9847" transform="matrix(-1 0 0 1 64 40.1885)" fill="white"/>
</g>
<path d="M59.4916 39.7319L68.5849 48.8209C68.9382 49.1999 69.1305 49.7011 69.1214 50.219C69.1122 50.7369 68.9023 51.231 68.5359 51.5972C68.1695 51.9635 67.6751 52.1733 67.157 52.1824C66.6388 52.1916 66.1374 51.9993 65.7582 51.6462L56.4249 42.3173L55.8916 41.7843L55.2516 41.1446C54.877 40.7698 54.6667 40.2617 54.6667 39.7319C54.6667 39.2022 54.877 38.6941 55.2516 38.3193L65.7582 27.8176C66.1374 27.4645 66.6388 27.2723 67.157 27.2814C67.6751 27.2905 68.1695 27.5003 68.5359 27.8666C68.9023 28.2328 69.1122 28.727 69.1214 29.2449C69.1305 29.7627 68.9382 30.264 68.5849 30.6429L59.4916 39.7319Z" fill="#3B3B3B" fill-opacity="0.98"/>
<defs>
<filter id="filter0_d_1_8" x="0" y="0.203735" width="128" height="127.969" filterUnits="userSpaceOnUse" color-interpolation-filters="sRGB">
<feFlood flood-opacity="0" result="BackgroundImageFix"/>
<feColorMatrix in="SourceAlpha" type="matrix" values="0 0 0 0 0 0 0 0 0 0 0 0 0 0 0 0 0 0 127 0" result="hardAlpha"/>
<feOffset dy="24"/>
<feGaussianBlur stdDeviation="16"/>
<feColorMatrix type="matrix" values="0 0 0 0 0.231373 0 0 0 0 0.231373 0 0 0 0 0.231373 0 0 0 0.12 0"/>
<feBlend mode="normal" in2="BackgroundImageFix" result="effect1_dropShadow_1_8"/>
<feBlend mode="normal" in="SourceGraphic" in2="effect1_dropShadow_1_8" result="shape"/>
</filter>
</defs>
</svg>
