<svg width="127" height="127" viewBox="0 0 127 127" fill="none" xmlns="http://www.w3.org/2000/svg">
<g filter="url(#filter0_d_3_98)">
<g filter="url(#filter1_d_3_98)">
<circle cx="63.3194" cy="39.3194" r="31.3194" fill="#60E1CB"/>
</g>
<path d="M66.427 38.8724L57.5271 47.7723C57.1813 48.1434 56.9931 48.6342 57.002 49.1413C57.011 49.6484 57.2164 50.1323 57.575 50.4909C57.9337 50.8495 58.4175 51.055 58.9246 51.0639C59.4317 51.0729 59.9225 50.8846 60.2936 50.5389L69.4284 41.404L69.9504 40.882L70.5768 40.2556C70.9434 39.8886 71.1493 39.3911 71.1493 38.8724C71.1493 38.3536 70.9434 37.8561 70.5768 37.4891L60.2936 27.2059C59.9225 26.8601 59.4317 26.6719 58.9246 26.6808C58.4175 26.6898 57.9337 26.8952 57.575 27.2538C57.2164 27.6125 57.0109 28.0963 57.002 28.6035C56.9931 29.1106 57.1813 29.6014 57.5271 29.9724L66.427 38.8724Z" fill="white"/>
</g>
<defs>
<filter id="filter0_d_3_98" x="28" y="8" width="70.6389" height="70.6389" filterUnits="userSpaceOnUse" color-interpolation-filters="sRGB">
<feFlood flood-opacity="0" result="BackgroundImageFix"/>
<feColorMatrix in="SourceAlpha" type="matrix" values="0 0 0 0 0 0 0 0 0 0 0 0 0 0 0 0 0 0 127 0" result="hardAlpha"/>
<feOffset dy="4"/>
<feGaussianBlur stdDeviation="2"/>
<feComposite in2="hardAlpha" operator="out"/>
<feColorMatrix type="matrix" values="0 0 0 0 0 0 0 0 0 0 0 0 0 0 0 0 0 0 0.25 0"/>
<feBlend mode="normal" in2="BackgroundImageFix" result="effect1_dropShadow_3_98"/>
<feBlend mode="normal" in="SourceGraphic" in2="effect1_dropShadow_3_98" result="shape"/>
</filter>
<filter id="filter1_d_3_98" x="0" y="0" width="126.639" height="126.639" filterUnits="userSpaceOnUse" color-interpolation-filters="sRGB">
<feFlood flood-opacity="0" result="BackgroundImageFix"/>
<feColorMatrix in="SourceAlpha" type="matrix" values="0 0 0 0 0 0 0 0 0 0 0 0 0 0 0 0 0 0 127 0" result="hardAlpha"/>
<feOffset dy="24"/>
<feGaussianBlur stdDeviation="16"/>
<feColorMatrix type="matrix" values="0 0 0 0 0.231373 0 0 0 0 0.231373 0 0 0 0 0.231373 0 0 0 0.12 0"/>
<feBlend mode="normal" in2="BackgroundImageFix" result="effect1_dropShadow_3_98"/>
<feBlend mode="normal" in="SourceGraphic" in2="effect1_dropShadow_3_98" result="shape"/>
</filter>
</defs>
</svg>
