<svg width="44" height="45" viewBox="0 0 44 45" fill="none" xmlns="http://www.w3.org/2000/svg">
<circle opacity="0.2" cx="13.8847" cy="11.3857" r="22.9594" fill="#60E1CB"/>
<path d="M39.8028 5.85197H39.2688C40.2866 4.195 39.9108 1.97044 38.2774 0.758542C36.5174 -0.547135 34.0163 -0.126851 32.7881 1.70862L30.0155 5.85206H6.19791C4.24018 5.85206 2.64746 7.44478 2.64746 9.4025V32.1019C2.64746 34.0596 4.24018 35.6524 6.19791 35.6524H19.9889L18.9469 40.029H16.6979C15.2322 40.029 14.0397 41.2214 14.0397 42.6871V43.2421H11.2673C10.7818 43.2421 10.3884 43.6357 10.3884 44.121C10.3884 44.6063 10.7818 44.9999 11.2673 44.9999H34.7335C35.2189 44.9999 35.6124 44.6063 35.6124 44.121C35.6124 43.6357 35.2189 43.2421 34.7335 43.2421H31.961V42.6871C31.961 41.2214 30.7686 40.029 29.3028 40.029H27.0539L26.0118 35.6524H39.8028C41.7606 35.6524 43.3533 34.0596 43.3533 32.1019V27.1072V9.40242C43.3533 7.44469 41.7606 5.85197 39.8028 5.85197V5.85197ZM27.2099 21.3027C25.8357 22.2647 23.2614 20.9572 20.8029 22.269C20.2031 19.1529 20.5813 16.2222 23.7035 15.5754C24.107 15.4913 24.5415 15.4532 24.9113 15.4606C25.9681 16.2447 27.037 17.0377 28.0908 17.8196C28.5521 19.1615 28.379 20.4844 27.2099 21.3027ZM28.0956 11.8821L30.5835 13.728L28.6702 16.0606C27.8826 15.4762 27.2055 14.9739 26.4178 14.3894C26.5814 14.145 27.9461 12.1054 28.0956 11.8821V11.8821ZM34.2491 2.68621C34.9147 1.69122 36.2724 1.45972 37.23 2.1703C38.188 2.88097 38.3595 4.24729 37.6004 5.17285C36.2535 6.81488 33.0514 10.719 31.6994 12.3673L29.0742 10.4196L34.2491 2.68621ZM30.2032 42.6871V43.2421H15.7975V42.6871C15.7975 42.1907 16.2014 41.7868 16.6979 41.7868H29.3028C29.7992 41.7868 30.2032 42.1907 30.2032 42.6871ZM25.2469 40.029H20.7538L21.7958 35.6524H24.2049L25.2469 40.029ZM41.5955 32.1019C41.5955 33.0904 40.7913 33.8946 39.8028 33.8946C38.4077 33.8946 7.76664 33.8946 6.198 33.8946C5.20951 33.8946 4.40533 33.0904 4.40533 32.1019V27.9861H6.91684C7.40225 27.9861 7.79573 27.5925 7.79573 27.1072C7.79573 26.6219 7.40225 26.2283 6.91684 26.2283H4.40515V9.40242C4.40515 8.41393 5.20933 7.60975 6.19782 7.60975H28.8393C27.9973 8.86805 25.5409 12.539 24.7629 13.7017C23.0405 13.7172 21.321 14.3173 20.1953 15.6314C18.6635 17.4195 18.3943 20.2291 19.3954 23.9821C19.5665 24.6239 20.3673 24.8538 20.8518 24.391C23.1243 22.2195 25.9547 24.5881 28.4893 22.5366C30.0365 21.2842 30.4027 19.2932 29.8193 17.4313C30.6079 16.4698 37.0845 8.57353 37.875 7.60975H39.8027C40.7912 7.60975 41.5953 8.41393 41.5953 9.40242V26.2282H13.9478C13.4624 26.2282 13.0689 26.6218 13.0689 27.1071C13.0689 27.5924 13.4624 27.986 13.9478 27.986H41.5955V32.1019Z" fill="#60E1CB"/>
<path d="M10.263 26.2452C9.83993 26.3317 9.5564 26.6974 9.5564 27.1075C9.5564 27.6573 10.059 28.0783 10.6067 27.9689C11.0933 27.8701 11.3898 27.4011 11.2966 26.9353C11.1988 26.4545 10.7325 26.1507 10.263 26.2452V26.2452Z" fill="#60E1CB"/>
</svg>
