<svg width="51" height="50" viewBox="0 0 51 50" fill="none" xmlns="http://www.w3.org/2000/svg">
<circle opacity="0.2" cx="23.7094" cy="10.1257" r="22.9594" fill="#60E1CB"/>
<path d="M50.2142 0.700245C50.0224 0.51238 49.7607 0.410552 49.4886 0.420601C49.2678 0.428353 44.0105 0.635454 37.761 2.80016C32.7532 4.53296 28.5791 7.01386 25.3546 10.174C24.6321 10.8821 23.9289 11.633 23.2562 12.413C20.0679 10.5738 17.513 11.1505 15.8979 11.9976C12.179 13.948 9.8772 19.2438 9.8772 23.0318C9.87749 23.4188 10.1155 23.7678 10.4803 23.9159C10.6011 23.965 10.7281 23.9888 10.8539 23.9888C11.1081 23.9888 11.3578 23.8915 11.5446 23.7085C13.5058 21.7865 15.9248 21.9067 16.7151 22.0085L17.0571 22.3437C16.384 23.9132 15.8418 25.4739 15.4442 26.9919C15.3006 27.5412 15.3491 28.1225 15.5624 28.6542C14.6222 29.0788 13.7151 29.7023 12.9252 30.4764C10.4115 32.94 9.90103 38.9438 9.88052 39.1982C9.85806 39.4774 9.96138 39.7522 10.1634 39.9502C10.3473 40.1303 10.596 40.2305 10.8539 40.2305C10.8794 40.2305 10.9051 40.2296 10.9308 40.2276C11.1904 40.2076 17.3169 39.7073 19.8307 37.2438C20.6202 36.4701 21.2564 35.5812 21.6897 34.66C22.2641 34.8813 22.8553 34.9086 23.3869 34.7751C24.9352 34.3855 26.5276 33.8543 28.1293 33.1946L28.4713 33.5298C28.5751 34.3043 28.6978 36.675 26.7366 38.5968C26.4574 38.8705 26.3738 39.2821 26.525 39.6397C26.6761 39.9973 27.0321 40.2304 27.4272 40.2304C31.2924 40.2304 36.6962 37.9746 38.6864 34.3302C39.5508 32.7475 40.1392 30.2437 38.2625 27.1191C39.0581 26.4601 39.8244 25.7711 40.5472 25.0627C43.7719 21.9026 46.3033 17.8119 48.0715 12.9047C50.2804 6.77987 50.4917 1.62761 50.4996 1.41132C50.5093 1.14574 50.4059 0.888206 50.2142 0.700245ZM12.0606 20.9733C12.6672 18.0962 14.4292 14.939 16.8199 13.6851C18.4174 12.8473 20.1636 12.9295 22.0202 13.9254C20.4385 15.9641 19.0634 18.1605 17.9172 20.4798C17.9027 20.471 17.7269 20.2545 17.4003 20.1823C17.266 20.1525 14.6822 19.6079 12.0606 20.9733ZM18.4496 35.8903C17.1069 37.2062 13.957 37.9003 11.9661 38.1836C12.2553 36.2324 12.9636 33.1456 14.3063 31.8298C15.0582 31.0929 15.9301 30.5342 16.8065 30.2195L20.0928 33.4401C19.7717 34.299 19.2017 35.1534 18.4496 35.8903ZM22.9018 32.9209C22.6192 32.9919 22.2918 32.8877 22.0485 32.6496C20.7851 31.4115 20.2908 30.9272 20.1358 30.7753C19.8514 30.4966 19.154 29.8132 17.6137 28.3036C17.3702 28.0644 17.2639 27.7437 17.3361 27.4672C17.6489 26.2734 18.0579 25.0486 18.5554 23.812L26.6311 31.7262C25.3691 32.2138 24.1195 32.6146 22.9018 32.9209ZM36.9646 33.427C35.6852 35.7697 32.4637 37.4966 29.5279 38.091C30.464 36.3648 30.6703 34.1674 30.3283 32.8349C30.2489 32.5254 30.0429 32.3698 30.0314 32.3515C32.3979 31.2282 34.639 29.8806 36.7194 28.3305C37.7357 30.1502 37.8194 31.8617 36.9646 33.427ZM39.1664 23.7092C38.2864 24.5715 37.3389 25.4046 36.35 26.1853C33.9729 28.061 31.3564 29.6499 28.565 30.9147L19.3834 21.9169C20.6741 19.1812 22.2953 16.6171 24.2092 14.2878C25.0065 13.318 25.8565 12.3893 26.7361 11.5274C29.6291 8.69211 33.3629 6.43563 37.8367 4.81136L46.0195 12.8305C44.3623 17.2147 42.0597 20.8739 39.1664 23.7092ZM46.7221 10.812L39.8964 4.12277C43.6152 2.9908 46.8505 2.56693 48.4653 2.41457C48.3097 3.9974 47.8771 7.16795 46.7221 10.812Z" fill="#60E1CB"/>
<path d="M17.0685 41.3042C16.6873 40.9305 16.0689 40.9305 15.6874 41.3041L9.07223 47.7861C8.69078 48.1598 8.69078 48.7658 9.07213 49.1395C9.45328 49.5132 10.0717 49.5134 10.4532 49.1396L17.0684 42.6577C17.4498 42.2839 17.4498 41.6779 17.0685 41.3042Z" fill="#60E1CB"/>
</svg>
