<svg width="453" height="452" viewBox="0 0 453 452" fill="none" xmlns="http://www.w3.org/2000/svg">
<path d="M290.079 421.903C248.756 435.329 204.244 435.329 162.921 421.903C121.598 408.476 85.587 382.312 60.0483 347.161C34.5095 312.01 20.7544 269.676 20.7544 226.227C20.7544 182.778 34.5095 140.444 60.0483 105.293C85.587 70.1419 121.598 43.9781 162.921 30.5516C204.244 17.1251 248.756 17.1251 290.079 30.5516C331.401 43.9781 367.412 70.1419 392.951 105.293C418.49 140.444 432.245 182.778 432.245 226.227" stroke="#7BC0E3" stroke-width="4"/>
<path d="M260.436 66.5695C294.152 73.7361 324.734 91.3927 347.799 117.009C370.864 142.624 385.227 174.885 388.83 209.165C392.433 243.446 385.091 277.988 367.856 307.839C350.621 337.691 324.379 361.32 292.889 375.34C261.4 389.36 226.28 393.051 192.564 385.884C158.847 378.718 128.265 361.061 105.201 335.445C82.1359 309.829 67.7727 277.569 64.1697 243.289C60.5666 209.008 67.9086 174.466 85.1434 144.615" stroke="#7BC0E3" stroke-width="4"/>
<path d="M145.273 316.439C126.222 299.285 113.091 276.541 107.761 251.466C102.431 226.391 105.176 200.272 115.603 176.853C126.03 153.434 143.603 133.917 165.804 121.099C188.005 108.282 213.694 102.821 239.189 105.501C264.684 108.18 288.676 118.862 307.727 136.016C326.777 153.169 339.909 175.913 345.239 200.989C350.569 226.064 347.823 252.183 337.397 275.602C326.97 299.021 309.397 318.538 287.196 331.355" stroke="#7BC0E3" stroke-width="4"/>
</svg>
