<svg width="56" height="63" viewBox="0 0 56 63" fill="none" xmlns="http://www.w3.org/2000/svg">
<circle opacity="0.2" cx="23.0405" cy="23.1257" r="22.9594" fill="#60E1CB"/>
<g clip-path="url(#clip0_2_332)">
<path d="M55.12 39.5038C55.1191 39.0474 54.882 38.6239 54.4935 38.3843L49.9202 35.5652L54.4983 32.7157C54.8844 32.4754 55.1193 32.0531 55.12 31.5984C55.1207 31.1437 54.887 30.7206 54.5016 30.4792L33.3201 17.2078C32.892 16.9395 32.3482 16.9395 31.9201 17.2078L10.7385 30.4792C10.3532 30.7206 10.1195 31.1437 10.1201 31.5984C10.1208 32.0531 10.3558 32.4755 10.7419 32.7157L15.2886 35.5456L10.7398 38.3887C10.354 38.6299 10.1198 39.0529 10.1202 39.5079C10.1206 39.9629 10.3557 40.3855 10.7419 40.626L15.2887 43.4559L10.7398 46.2988C10.3546 46.5397 10.1205 46.9618 10.1202 47.4161C10.1199 47.8704 10.3536 48.2928 10.7386 48.534L31.9202 61.8054C32.1343 61.9395 32.3772 62.0066 32.6201 62.0066C32.863 62.0066 33.1061 61.9395 33.3201 61.8054L54.5016 48.534C54.8878 48.292 55.1217 47.8677 55.12 47.412C55.1184 46.9563 54.8814 46.5337 54.4935 46.2945L49.9202 43.4754L54.4983 40.6259C54.8858 40.3847 55.121 39.9602 55.12 39.5038ZM13.9275 31.5929L32.6201 19.8809L51.3127 31.5929C51.1331 31.7047 33.1558 42.8938 32.6201 43.2273L13.9275 31.5929ZM51.3041 47.4259L32.6201 59.1325L13.9238 47.4182L17.7813 45.0073L31.9235 53.8095C32.1367 53.9422 32.3784 54.0086 32.6201 54.0086C32.8618 54.0086 33.1035 53.9422 33.3167 53.8095L47.42 45.0316L51.3041 47.4259ZM32.6201 51.1374L13.9297 39.5044L17.7813 37.0972L31.9235 45.8994C32.1367 46.0321 32.3784 46.0985 32.6201 46.0985C32.8618 46.0985 33.1035 46.0321 33.3167 45.8994L47.42 37.1214L51.2981 39.512C51.191 39.5787 33.1149 50.8293 32.6201 51.1374Z" fill="#60E1CB"/>
</g>
<defs>
<clipPath id="clip0_2_332">
<rect width="45" height="45" fill="white" transform="translate(10.1201 17.0066)"/>
</clipPath>
</defs>
</svg>
