<svg width="55" height="56" viewBox="0 0 55 56" fill="none" xmlns="http://www.w3.org/2000/svg">
<circle opacity="0.2" cx="23.0405" cy="23.79" r="22.9594" fill="#60E1CB"/>
<mask id="path-2-inside-1_2_329" fill="white">
<path d="M40.359 39.0641C41.5156 37.411 42.1951 35.4009 42.1951 33.2349C42.1951 27.6133 37.6213 23.0396 31.9998 23.0396C26.3782 23.0396 21.8044 27.6133 21.8044 33.2349C21.8044 38.8568 26.3782 43.4302 31.9998 43.4302C34.1884 43.4302 36.2182 42.7367 37.8812 41.5584L44.5338 48.2109C44.8768 48.5539 45.3269 48.7256 45.7766 48.7256C46.2264 48.7256 46.6765 48.5539 47.0194 48.2109C47.7061 47.5243 47.7061 46.4112 47.0194 45.7249L40.359 39.0641ZM25.3201 33.2349C25.3201 29.5517 28.3166 26.5552 31.9998 26.5552C35.6829 26.5552 38.6794 29.5517 38.6794 33.2349C38.6794 36.918 35.6829 39.9146 31.9998 39.9146C28.3166 39.9146 25.3201 36.918 25.3201 33.2349ZM54.4998 32.2681V34.0259C54.4998 36.9338 52.1343 39.2993 49.2263 39.2993H48.3409C48.1981 39.2993 48.0892 39.3532 48.0233 39.3985C47.2227 39.9479 46.1285 39.7439 45.5795 38.9429C45.0302 38.1427 45.2342 37.0481 46.0348 36.4992C46.7177 36.0312 47.5149 35.7837 48.3409 35.7837H49.2263C50.1955 35.7837 50.9841 34.9951 50.9841 34.0259V32.2681C50.9841 31.2989 50.1955 30.5103 49.2263 30.5103H48.3409C46.6792 30.5103 45.193 29.5102 44.5537 27.9628L44.5431 27.937C43.9007 26.39 44.2444 24.6312 45.4192 23.4563L46.0454 22.8305C46.7307 22.1449 46.7307 21.0297 46.0454 20.3445L44.8023 19.1016C44.4703 18.7696 44.0288 18.5867 43.5594 18.5867C43.0898 18.5867 42.6483 18.7693 42.3166 19.1016L41.6904 19.7275C40.5155 20.9024 38.7567 21.2464 37.2097 20.6033L37.1836 20.5927C35.6366 19.9538 34.6365 18.4675 34.6365 16.8058V15.9204C34.6365 14.9512 33.8479 14.1626 32.8787 14.1626H31.1208C30.1516 14.1626 29.363 14.9512 29.363 15.9204V16.8058C29.363 18.4675 28.3629 19.9538 26.8156 20.5927L26.7933 20.602C25.2425 21.246 23.484 20.9024 22.3091 19.7275L21.6829 19.1013C21.3513 18.7693 20.9097 18.5867 20.4401 18.5867C19.9708 18.5867 19.5292 18.7693 19.1973 19.1013L17.9541 20.3445C17.2688 21.0297 17.2688 22.1449 17.9541 22.8305L18.5803 23.4563C19.7551 24.6312 20.0988 26.39 19.4561 27.9374L19.4455 27.9635C18.8065 29.5102 17.3203 30.5103 15.6586 30.5103H14.7732C13.804 30.5103 13.0154 31.2989 13.0154 32.2681V34.0259C13.0154 34.9951 13.804 35.7837 14.7732 35.7837H15.6586C17.32 35.7837 18.8065 36.7838 19.4455 38.3311L19.4585 38.362C20.0988 39.9039 19.7551 41.6628 18.5803 42.8376L17.9541 43.4635C17.6221 43.7955 17.4394 44.237 17.4394 44.7066C17.4394 45.176 17.6221 45.6175 17.9541 45.9495L19.1973 47.1926C19.8825 47.8779 20.9976 47.8783 21.6833 47.1926L22.3091 46.5664C23.4833 45.3926 25.2408 45.0483 26.7874 45.6896L26.8101 45.6989C28.3633 46.3402 29.363 47.8268 29.363 49.4881V50.3735C29.363 51.3427 30.1516 52.1313 31.1208 52.1313H32.8787C33.8479 52.1313 34.6365 51.3427 34.6365 50.3735V49.4881C34.6365 48.6621 34.884 47.8645 35.3523 47.182C35.9013 46.3814 36.9954 46.1774 37.7961 46.7268C38.5967 47.2757 38.8006 48.3699 38.2513 49.1705C38.206 49.2365 38.1521 49.3453 38.1521 49.4881V50.3735C38.1521 53.2815 35.7866 55.647 32.8787 55.647H31.1208C28.2129 55.647 25.8474 53.2815 25.8474 50.3735V49.4881C25.8474 49.2553 25.7008 49.0442 25.4735 48.9505L25.4416 48.9371C25.2133 48.8423 24.9596 48.8876 24.7951 49.0524L24.1689 49.6786C22.1131 51.7345 18.7674 51.7345 16.7113 49.6786L15.4681 48.4355C14.4721 47.4395 13.9238 46.1153 13.9238 44.7066C13.9238 43.298 14.4721 41.9738 15.4684 40.9778L16.0943 40.3516C16.2588 40.1871 16.3041 39.9334 16.2097 39.7055L16.1952 39.6711C16.1025 39.4459 15.8914 39.2993 15.6586 39.2993H14.7732C11.8652 39.2993 9.49976 36.9338 9.49976 34.0259V32.2681C9.49976 29.3601 11.8652 26.9946 14.7732 26.9946H15.6586C15.8914 26.9946 16.1025 26.848 16.1963 26.6211L16.2093 26.5892C16.3044 26.3609 16.2591 26.1071 16.0943 25.9423L15.4684 25.3165C13.4123 23.2603 13.4123 19.9146 15.4684 17.8585L16.7113 16.6156C17.7076 15.6197 19.0318 15.071 20.4401 15.071C21.8487 15.071 23.1729 15.6197 24.1693 16.6156L24.7951 17.2415C24.9599 17.4063 25.2136 17.4516 25.4416 17.3569L25.4732 17.3435C25.7008 17.2498 25.8474 17.0386 25.8474 16.8058V15.9204C25.8474 13.0125 28.2132 10.647 31.1208 10.647H32.8787C35.7866 10.647 38.1521 13.0125 38.1521 15.9204V16.8058C38.1521 17.0386 38.2987 17.2498 38.5256 17.3435L38.5613 17.3582C38.7862 17.4516 39.0399 17.4063 39.2044 17.2415L39.8306 16.6156C40.8266 15.6193 42.1508 15.071 43.5594 15.071C44.9677 15.071 46.2923 15.6193 47.2883 16.6156L48.5311 17.8585C50.5872 19.9146 50.5872 23.2603 48.5311 25.3161L47.9052 25.9423C47.7404 26.1068 47.6951 26.3605 47.7899 26.5888L47.8029 26.6204C47.897 26.8477 48.1081 26.9946 48.3409 26.9946H49.2263C52.1343 26.9946 54.4998 29.3601 54.4998 32.2681V32.2681Z"/>
</mask>
<path d="M40.359 39.0641C41.5156 37.411 42.1951 35.4009 42.1951 33.2349C42.1951 27.6133 37.6213 23.0396 31.9998 23.0396C26.3782 23.0396 21.8044 27.6133 21.8044 33.2349C21.8044 38.8568 26.3782 43.4302 31.9998 43.4302C34.1884 43.4302 36.2182 42.7367 37.8812 41.5584L44.5338 48.2109C44.8768 48.5539 45.3269 48.7256 45.7766 48.7256C46.2264 48.7256 46.6765 48.5539 47.0194 48.2109C47.7061 47.5243 47.7061 46.4112 47.0194 45.7249L40.359 39.0641ZM25.3201 33.2349C25.3201 29.5517 28.3166 26.5552 31.9998 26.5552C35.6829 26.5552 38.6794 29.5517 38.6794 33.2349C38.6794 36.918 35.6829 39.9146 31.9998 39.9146C28.3166 39.9146 25.3201 36.918 25.3201 33.2349ZM54.4998 32.2681V34.0259C54.4998 36.9338 52.1343 39.2993 49.2263 39.2993H48.3409C48.1981 39.2993 48.0892 39.3532 48.0233 39.3985C47.2227 39.9479 46.1285 39.7439 45.5795 38.9429C45.0302 38.1427 45.2342 37.0481 46.0348 36.4992C46.7177 36.0312 47.5149 35.7837 48.3409 35.7837H49.2263C50.1955 35.7837 50.9841 34.9951 50.9841 34.0259V32.2681C50.9841 31.2989 50.1955 30.5103 49.2263 30.5103H48.3409C46.6792 30.5103 45.193 29.5102 44.5537 27.9628L44.5431 27.937C43.9007 26.39 44.2444 24.6312 45.4192 23.4563L46.0454 22.8305C46.7307 22.1449 46.7307 21.0297 46.0454 20.3445L44.8023 19.1016C44.4703 18.7696 44.0288 18.5867 43.5594 18.5867C43.0898 18.5867 42.6483 18.7693 42.3166 19.1016L41.6904 19.7275C40.5155 20.9024 38.7567 21.2464 37.2097 20.6033L37.1836 20.5927C35.6366 19.9538 34.6365 18.4675 34.6365 16.8058V15.9204C34.6365 14.9512 33.8479 14.1626 32.8787 14.1626H31.1208C30.1516 14.1626 29.363 14.9512 29.363 15.9204V16.8058C29.363 18.4675 28.3629 19.9538 26.8156 20.5927L26.7933 20.602C25.2425 21.246 23.484 20.9024 22.3091 19.7275L21.6829 19.1013C21.3513 18.7693 20.9097 18.5867 20.4401 18.5867C19.9708 18.5867 19.5292 18.7693 19.1973 19.1013L17.9541 20.3445C17.2688 21.0297 17.2688 22.1449 17.9541 22.8305L18.5803 23.4563C19.7551 24.6312 20.0988 26.39 19.4561 27.9374L19.4455 27.9635C18.8065 29.5102 17.3203 30.5103 15.6586 30.5103H14.7732C13.804 30.5103 13.0154 31.2989 13.0154 32.2681V34.0259C13.0154 34.9951 13.804 35.7837 14.7732 35.7837H15.6586C17.32 35.7837 18.8065 36.7838 19.4455 38.3311L19.4585 38.362C20.0988 39.9039 19.7551 41.6628 18.5803 42.8376L17.9541 43.4635C17.6221 43.7955 17.4394 44.237 17.4394 44.7066C17.4394 45.176 17.6221 45.6175 17.9541 45.9495L19.1973 47.1926C19.8825 47.8779 20.9976 47.8783 21.6833 47.1926L22.3091 46.5664C23.4833 45.3926 25.2408 45.0483 26.7874 45.6896L26.8101 45.6989C28.3633 46.3402 29.363 47.8268 29.363 49.4881V50.3735C29.363 51.3427 30.1516 52.1313 31.1208 52.1313H32.8787C33.8479 52.1313 34.6365 51.3427 34.6365 50.3735V49.4881C34.6365 48.6621 34.884 47.8645 35.3523 47.182C35.9013 46.3814 36.9954 46.1774 37.7961 46.7268C38.5967 47.2757 38.8006 48.3699 38.2513 49.1705C38.206 49.2365 38.1521 49.3453 38.1521 49.4881V50.3735C38.1521 53.2815 35.7866 55.647 32.8787 55.647H31.1208C28.2129 55.647 25.8474 53.2815 25.8474 50.3735V49.4881C25.8474 49.2553 25.7008 49.0442 25.4735 48.9505L25.4416 48.9371C25.2133 48.8423 24.9596 48.8876 24.7951 49.0524L24.1689 49.6786C22.1131 51.7345 18.7674 51.7345 16.7113 49.6786L15.4681 48.4355C14.4721 47.4395 13.9238 46.1153 13.9238 44.7066C13.9238 43.298 14.4721 41.9738 15.4684 40.9778L16.0943 40.3516C16.2588 40.1871 16.3041 39.9334 16.2097 39.7055L16.1952 39.6711C16.1025 39.4459 15.8914 39.2993 15.6586 39.2993H14.7732C11.8652 39.2993 9.49976 36.9338 9.49976 34.0259V32.2681C9.49976 29.3601 11.8652 26.9946 14.7732 26.9946H15.6586C15.8914 26.9946 16.1025 26.848 16.1963 26.6211L16.2093 26.5892C16.3044 26.3609 16.2591 26.1071 16.0943 25.9423L15.4684 25.3165C13.4123 23.2603 13.4123 19.9146 15.4684 17.8585L16.7113 16.6156C17.7076 15.6197 19.0318 15.071 20.4401 15.071C21.8487 15.071 23.1729 15.6197 24.1693 16.6156L24.7951 17.2415C24.9599 17.4063 25.2136 17.4516 25.4416 17.3569L25.4732 17.3435C25.7008 17.2498 25.8474 17.0386 25.8474 16.8058V15.9204C25.8474 13.0125 28.2132 10.647 31.1208 10.647H32.8787C35.7866 10.647 38.1521 13.0125 38.1521 15.9204V16.8058C38.1521 17.0386 38.2987 17.2498 38.5256 17.3435L38.5613 17.3582C38.7862 17.4516 39.0399 17.4063 39.2044 17.2415L39.8306 16.6156C40.8266 15.6193 42.1508 15.071 43.5594 15.071C44.9677 15.071 46.2923 15.6193 47.2883 16.6156L48.5311 17.8585C50.5872 19.9146 50.5872 23.2603 48.5311 25.3161L47.9052 25.9423C47.7404 26.1068 47.6951 26.3605 47.7899 26.5888L47.8029 26.6204C47.897 26.8477 48.1081 26.9946 48.3409 26.9946H49.2263C52.1343 26.9946 54.4998 29.3601 54.4998 32.2681V32.2681Z" fill="#60E1CB" stroke="#FCFCFE" stroke-width="1.2" mask="url(#path-2-inside-1_2_329)"/>
</svg>
