<svg width="46" height="42" viewBox="0 0 46 42" fill="none" xmlns="http://www.w3.org/2000/svg">
<circle opacity="0.2" cx="16.8169" cy="11.7363" r="22.9594" fill="#60E1CB"/>
<path d="M44.6072 7.07131C43.5625 4.41956 42.4375 3.53564 37.9375 3.53564C35.2053 3.53564 33.1161 5.62489 33.1161 8.35706C33.1161 9.80348 33.9197 11.1696 34.7233 12.616C34.9643 13.1785 35.3661 13.741 35.6072 14.3035L35.9286 14.9463C36.6518 16.3927 37.1339 17.4374 37.1339 19.6071C37.1339 20.491 36.9732 21.4553 36.5714 22.8213V22.9016L33.9197 30.857L27.0329 11.3446C27.2659 11.3146 27.499 11.2832 27.7322 11.2499C29.0179 11.2499 30.0625 10.1249 30.0625 8.83914C30.0625 7.47306 29.0178 6.42839 27.6517 6.42839C27.5714 6.42839 27.5714 6.42839 27.491 6.42839C24.3571 6.91056 21.2232 6.91056 18.0892 6.42839C18.0089 6.42839 18.0089 6.42839 17.9285 6.42839C16.5624 6.42839 15.5177 7.47306 15.5177 8.83914C15.5178 10.1249 16.5625 11.2499 17.8483 11.2499C18.1175 11.2902 18.3895 11.3274 18.6625 11.3629L21.9464 19.6874L17.9286 31.4999L10.6958 11.2636C10.7228 11.2589 10.7498 11.2547 10.7767 11.2499C12.0625 11.1696 13.1071 10.1249 13.1071 8.83914C13.1071 7.47306 12.0624 6.42839 10.6963 6.42839C10.616 6.42839 10.616 6.42839 10.5356 6.42839C7.96416 6.91056 5.39274 6.91056 2.82133 6.42839C2.741 6.42839 2.741 6.42839 2.66058 6.42839C1.29467 6.42848 0.25 7.47314 0.25 8.83914C0.25 10.1024 1.25863 11.1322 2.51336 11.2441L12.3839 38.2499C12.9464 39.7766 14.1517 40.9016 15.7589 41.3035C16.1607 41.3838 16.4822 41.4642 16.8839 41.4642C18.8928 41.4642 20.8214 40.0981 21.4642 38.1696L26.0446 24.5088L30.866 38.1696C31.2677 39.2946 32.0713 40.0981 32.9552 40.4196C33.7588 40.741 34.6427 40.6606 35.4463 40.2588C36.491 39.8571 37.2946 38.9731 37.616 37.9285L43.5625 20.0891C44.9286 16.6338 45.25 13.5802 45.25 11.6516V10.3659C45.25 9.24098 45.0892 8.11598 44.6072 7.07131ZM17.9286 9.64272C17.4464 9.64272 17.125 9.32131 17.125 8.83914C17.125 8.43739 17.4464 8.03556 17.8483 8.03556C21.1429 8.59806 24.3572 8.59806 27.7322 8.03556C28.1339 8.03556 28.4554 8.4373 28.4554 8.83914C28.4554 9.32131 28.134 9.64272 27.6518 9.64272C27.5715 9.64272 27.5715 9.64272 27.4911 9.64272C27.013 9.71629 26.5349 9.7772 26.0568 9.82835C25.9768 9.81183 25.8923 9.80348 25.8036 9.80348C23.6339 10.0446 21.4643 10.0446 19.2947 9.80348C19.2932 9.80348 19.2916 9.80365 19.2901 9.80365C18.8898 9.75777 18.4896 9.70434 18.0893 9.64272C18.0089 9.64272 18.0089 9.64272 17.9286 9.64272ZM1.85717 8.83914C1.85717 8.43739 2.17858 8.03556 2.58042 8.03556C5.31259 8.59806 8.04467 8.59806 10.7768 8.03556C11.1786 8.03556 11.5001 8.4373 11.5001 8.83914C11.5001 9.32131 11.1787 9.64272 10.6965 9.64272C10.6162 9.64272 10.6162 9.64272 10.5358 9.64272C10.2033 9.70504 9.87077 9.759 9.53828 9.80523C9.52264 9.80453 9.50699 9.80348 9.49108 9.80348C9.35687 9.82492 9.22223 9.8447 9.08731 9.86333C7.21173 10.083 5.33623 10.0448 3.46064 9.75144C3.40826 9.74186 3.35588 9.73316 3.30358 9.72314C3.29655 9.72314 3.28952 9.72376 3.28249 9.72385C3.12877 9.69845 2.97514 9.67164 2.82142 9.64281C2.74108 9.64281 2.74108 9.64281 2.66066 9.64281C2.17858 9.64272 1.85717 9.32131 1.85717 8.83914ZM43.5625 11.7321C43.5625 13.4999 43.3214 16.3928 42.0358 19.6071L36.009 37.4463C35.7679 38.0891 35.2858 38.5713 34.6429 38.8124C34.2412 38.9731 33.8393 39.0535 33.4376 38.8927C32.9554 38.732 32.4733 38.2499 32.2323 37.607L26.6073 21.857C26.5269 21.5356 26.2055 21.2945 25.884 21.2945C25.5626 21.2945 25.2412 21.5356 25.1608 21.857L19.9375 37.6071C19.4553 39.1338 17.7678 40.0981 16.1608 39.6963C15.1161 39.4552 14.3125 38.7321 13.9108 37.6874L4.3552 11.51C5.12969 11.5987 5.90409 11.6517 6.67858 11.6517C7.48322 11.6517 8.28786 11.5949 9.09241 11.4998L17.2857 34.2321C17.366 34.5535 17.6874 34.7946 18.0089 34.7946C18.3303 34.7946 18.6517 34.5535 18.7322 34.2321L23.5536 19.9285C23.6339 19.7677 23.6339 19.5267 23.5536 19.366L20.5262 11.5585C21.274 11.6172 22.0203 11.6517 22.75 11.6517C23.6183 11.6517 24.5105 11.6037 25.413 11.5224L33.2767 33.5892C33.3571 33.9106 33.6785 34.1517 34 34.1517C34.3215 34.1517 34.6428 33.9106 34.7233 33.5892L38.0983 23.5446C38.1786 23.4642 38.1786 23.4642 38.1786 23.3838C38.6608 21.8571 38.8214 20.6516 38.8214 19.6874C38.8214 17.116 38.1786 15.8302 37.4553 14.3035L37.1339 13.6606C36.8125 13.0981 36.4911 12.4553 36.1697 11.8928C35.4464 10.6874 34.8036 9.48206 34.8036 8.43739C34.8036 6.34814 36.4911 5.22314 38.0178 5.22314C42.1964 5.22314 42.5178 6.02673 43.0803 7.71423C43.4017 8.51781 43.5625 9.40173 43.5625 10.366V11.7321V11.7321Z" fill="#60E1CB"/>
</svg>
